<?xml version="1.0" standalone="no"?>
<svg id="Group47" width="275" height="242" viewBox="0 0 275 242" fill="none" xmlns="http://www.w3.org/2000/svg" style="max-width: 100%; max-height: 100%;">
<path d="M163.875 147.582C138.291 173.166 112.06 193.15 90.3789 204.798C79.5266 210.629 69.9176 214.314 62.1629 215.62C54.3466 216.937 48.8853 215.772 45.7032 212.59C42.5212 209.408 41.3561 203.946 42.6726 196.13C43.9788 188.375 47.6644 178.766 53.4949 167.914C65.1433 146.233 85.1271 120.002 110.711 94.4181C136.295 68.8341 162.526 48.8503 184.207 37.2019C195.059 31.3714 204.668 27.6858 212.423 26.3797C220.239 25.0631 225.701 26.2283 228.883 29.4103C232.065 32.5923 233.23 38.0537 231.913 45.8699C230.607 53.6247 226.921 63.2336 221.091 74.086C209.443 95.7673 189.459 121.998 163.875 147.582Z" stroke="white" stroke-opacity="0.17" stroke-width="4" stroke-dasharray="0,0,0,564.6466674804688"><animate attributeType="XML" attributeName="stroke-dasharray" repeatCount="indefinite" dur="1.8518518518518519s" values="0,0,0,564.6466674804688; 
          0,282.3233337402344,282.3233337402344,0; 
          564.6466674804688,0,0,0" keyTimes="0; 0.5; 1" fill="freeze"></animate></path>
<path d="M156.09 153.556C124.756 171.647 94.2468 184.16 70.2894 189.8C58.2979 192.623 48.0624 193.696 40.2339 192.951C32.3432 192.2 27.3695 189.661 25.1194 185.764C22.8694 181.866 23.1575 176.29 26.4522 169.08C29.7209 161.928 35.7679 153.6 44.2085 144.627C61.0715 126.699 87.1634 106.535 118.497 88.4439C149.831 70.3533 180.34 57.8394 204.297 52.1994C216.289 49.3764 226.525 48.3034 234.353 49.0488C242.244 49.8001 247.217 52.3391 249.467 56.2362C251.718 60.1334 251.429 65.7102 248.135 72.9194C244.866 80.0718 238.819 88.3995 230.378 97.373C213.515 115.301 187.424 135.465 156.09 153.556Z" stroke="white" stroke-opacity="0.17" stroke-width="4" stroke-dasharray="0,0,0,564.6461791992188"><animate attributeType="XML" attributeName="stroke-dasharray" repeatCount="indefinite" dur="1.8518518518518519s" values="0,0,0,564.6461791992188; 
          0,282.3230895996094,282.3230895996094,0; 
          564.6461791992188,0,0,0" keyTimes="0; 0.5; 1" fill="freeze"></animate></path>
<path d="M147.023 157.312C112.075 166.676 79.3663 170.867 54.7656 170.114C42.452 169.737 32.2875 168.125 24.9187 165.379C17.4913 162.611 13.3442 158.871 12.1795 154.524C11.0148 150.177 12.7364 144.865 17.7847 138.754C22.7933 132.692 30.7896 126.213 41.2651 119.73C62.1935 106.777 92.6153 94.0529 127.564 84.6885C162.512 75.3241 195.22 71.1329 219.821 71.8857C232.135 72.2626 242.299 73.8752 249.668 76.6214C257.095 79.3894 261.243 83.1291 262.407 87.4758C263.572 91.8226 261.85 97.1348 256.802 103.246C251.793 109.308 243.797 115.787 233.322 122.27C212.393 135.223 181.971 147.947 147.023 157.312Z" stroke="white" stroke-opacity="0.17" stroke-width="4" stroke-dasharray="0,0,0,564.6463623046875"><animate attributeType="XML" attributeName="stroke-dasharray" repeatCount="indefinite" dur="1.8518518518518519s" values="0,0,0,564.6463623046875; 
          0,282.32318115234375,282.32318115234375,0; 
          564.6463623046875,0,0,0" keyTimes="0; 0.5; 1" fill="freeze"></animate></path>
<path d="M137.09 159C100.779 159 67.9837 154.537 44.3318 147.37C32.4933 143.783 23.0586 139.551 16.6279 134.944C10.1485 130.302 7.08984 125.562 7.08984 121C7.08984 116.438 10.1485 111.698 16.6279 107.056C23.0586 102.449 32.4933 98.2172 44.3318 94.6298C67.9837 87.4625 100.779 83 137.09 83C173.401 83 206.196 87.4625 229.848 94.6298C241.686 98.2172 251.121 102.449 257.552 107.056C264.031 111.698 267.09 116.438 267.09 121C267.09 125.562 264.031 130.302 257.552 134.944C251.121 139.551 241.686 143.783 229.848 147.37C206.196 154.537 173.401 159 137.09 159Z" stroke="white" stroke-opacity="0.17" stroke-width="4" stroke-dasharray="0,0,0,567.2578125"><animate attributeType="XML" attributeName="stroke-dasharray" repeatCount="indefinite" dur="1.8518518518518519s" values="0,0,0,567.2578125; 
          0,283.62890625,283.62890625,0; 
          567.2578125,0,0,0" keyTimes="0; 0.5; 1" fill="freeze"></animate></path>
<path d="M127.564 157.312C92.6159 147.947 62.1941 135.223 41.2656 122.27C30.7901 115.787 22.7938 109.308 17.7853 103.246C12.737 97.1348 11.0154 91.8226 12.1801 87.4759C13.3448 83.1291 17.4919 79.3894 24.9192 76.6214C32.2881 73.8752 42.4525 72.2626 54.7661 71.8858C79.3669 71.1329 112.075 75.3241 147.024 84.6885C181.972 94.0529 212.394 106.777 233.322 119.73C243.798 126.213 251.794 132.692 256.803 138.754C261.851 144.865 263.572 150.177 262.408 154.524C261.243 158.871 257.096 162.611 249.669 165.379C242.3 168.125 232.135 169.737 219.822 170.114C195.221 170.867 162.513 166.676 127.564 157.312Z" stroke="white" stroke-opacity="0.17" stroke-width="4" stroke-dasharray="0,0,0,564.6465454101562"><animate attributeType="XML" attributeName="stroke-dasharray" repeatCount="indefinite" dur="1.8518518518518519s" values="0,0,0,564.6465454101562; 
          0,282.3232727050781,282.3232727050781,0; 
          564.6465454101562,0,0,0" keyTimes="0; 0.5; 1" fill="freeze"></animate></path>
<setting>{"type":"direct","speed":27,"random":1,"shift":1,"size":1,"rupture":50}</setting>

</svg>