<svg width="197" height="197" viewBox="0 0 197 197" fill="none" xmlns="http://www.w3.org/2000/svg">
<g filter="url(#filter0_ii_200_349)">
<path d="M26.4295 39.1246C19.2948 41.8829 14.5908 48.7447 14.5908 56.394V140.313C14.5908 147.909 19.2309 154.735 26.2946 157.529L90.5309 182.943C94.9068 184.674 99.7776 184.674 104.153 182.943L168.39 157.529C175.454 154.735 180.094 147.909 180.094 140.313V56.394C180.094 48.7447 175.39 41.8829 168.255 39.1246L104.019 14.291C99.7226 12.6302 94.9618 12.6302 90.6659 14.291L26.4295 39.1246Z" fill="#DEDDDE"/>
<path d="M26.4295 39.1246C19.2948 41.8829 14.5908 48.7447 14.5908 56.394V140.313C14.5908 147.909 19.2309 154.735 26.2946 157.529L90.5309 182.943C94.9068 184.674 99.7776 184.674 104.153 182.943L168.39 157.529C175.454 154.735 180.094 147.909 180.094 140.313V56.394C180.094 48.7447 175.39 41.8829 168.255 39.1246L104.019 14.291C99.7226 12.6302 94.9618 12.6302 90.6659 14.291L26.4295 39.1246Z" fill="url(#paint0_linear_200_349)"/>
<path d="M26.4295 39.1246C19.2948 41.8829 14.5908 48.7447 14.5908 56.394V140.313C14.5908 147.909 19.2309 154.735 26.2946 157.529L90.5309 182.943C94.9068 184.674 99.7776 184.674 104.153 182.943L168.39 157.529C175.454 154.735 180.094 147.909 180.094 140.313V56.394C180.094 48.7447 175.39 41.8829 168.255 39.1246L104.019 14.291C99.7226 12.6302 94.9618 12.6302 90.6659 14.291L26.4295 39.1246Z" fill="url(#paint1_radial_200_349)"/>
</g>
<path d="M26.4295 39.1246C19.2948 41.8829 14.5908 48.7447 14.5908 56.394V140.313C14.5908 147.909 19.2309 154.735 26.2946 157.529L90.5309 182.943C94.9068 184.674 99.7776 184.674 104.153 182.943L168.39 157.529C175.454 154.735 180.094 147.909 180.094 140.313V56.394C180.094 48.7447 175.39 41.8829 168.255 39.1246L104.019 14.291C99.7226 12.6302 94.9618 12.6302 90.6659 14.291L26.4295 39.1246Z" fill="url(#paint2_linear_200_349)"/>
<path d="M26.4295 39.1246C19.2948 41.8829 14.5908 48.7447 14.5908 56.394V140.313C14.5908 147.909 19.2309 154.735 26.2946 157.529L90.5309 182.943C94.9068 184.674 99.7776 184.674 104.153 182.943L168.39 157.529C175.454 154.735 180.094 147.909 180.094 140.313V56.394C180.094 48.7447 175.39 41.8829 168.255 39.1246L104.019 14.291C99.7226 12.6302 94.9618 12.6302 90.6659 14.291L26.4295 39.1246Z" fill="url(#paint3_linear_200_349)"/>
<g filter="url(#filter1_f_200_349)">
<path d="M25.0943 149.123L85.9295 173.768C91.3848 175.977 97.3428 171.963 97.3428 166.077V87.6429C97.3428 80.4578 93.0185 73.9788 86.3832 71.2224L29.4431 47.5684C23.9785 45.2983 17.9619 49.3139 17.9619 55.2313V134.86C17.9619 140.561 20.6763 145.811 25.0943 149.123Z" fill="#C5C2C8"/>
</g>
<g filter="url(#filter2_f_200_349)">
<path d="M168.953 142.773L108.117 166.856C102.662 169.015 96.7041 165.092 96.7041 159.34V82.6923C96.7041 75.6708 101.028 69.3393 107.664 66.6456L164.604 43.5302C170.068 41.3118 176.085 45.236 176.085 51.0186V128.834C176.085 134.405 173.371 139.536 168.953 142.773Z" fill="#F6F4F8"/>
</g>
<path d="M180.072 55.4882C178.877 50.5271 173.439 47.507 168.426 49.5604L108.172 74.245C101.235 77.0867 96.7041 83.8392 96.7041 91.3352V172.803C96.7041 178.899 102.859 183.068 108.52 180.807L172.552 155.227C177.22 151.792 180.094 146.291 180.094 140.313V56.3941C180.094 56.0908 180.086 55.7888 180.072 55.4882Z" fill="url(#paint4_linear_200_349)"/>
<path d="M21.6612 155.194L84.8492 180.791C90.5156 183.087 96.704 178.917 96.704 172.803V91.3357C96.704 83.8728 92.2125 77.1432 85.3205 74.2801L26.1781 49.7113C20.5022 47.3534 14.2529 51.5243 14.2529 57.6705V140.379C14.2529 146.3 17.0723 151.753 21.6612 155.194Z" fill="url(#paint5_linear_200_349)"/>
<ellipse cx="97.0425" cy="39.798" rx="16.8599" ry="7.12692" fill="url(#paint6_radial_200_349)"/>
<ellipse cx="120.145" cy="148.801" rx="9.30477" ry="14.6123" transform="rotate(23.4058 120.145 148.801)" fill="url(#paint7_radial_200_349)"/>
<ellipse cx="120.145" cy="148.801" rx="9.30477" ry="14.6123" transform="rotate(23.4058 120.145 148.801)" fill="url(#paint8_radial_200_349)"/>
<ellipse cx="139.398" cy="116.783" rx="9.30477" ry="14.6123" transform="rotate(23.4058 139.398 116.783)" fill="url(#paint9_radial_200_349)"/>
<ellipse cx="139.398" cy="116.783" rx="9.30477" ry="14.6123" transform="rotate(23.4058 139.398 116.783)" fill="url(#paint10_radial_200_349)"/>
<ellipse cx="158.757" cy="84.1268" rx="9.30477" ry="14.6123" transform="rotate(23.4058 158.757 84.1268)" fill="url(#paint11_radial_200_349)"/>
<ellipse cx="158.757" cy="84.1268" rx="9.30477" ry="14.6123" transform="rotate(23.4058 158.757 84.1268)" fill="url(#paint12_radial_200_349)"/>
<ellipse rx="9.37409" ry="15.7701" transform="matrix(-0.959262 0.282519 0.282519 0.959262 35.221 85.5699)" fill="url(#paint13_radial_200_349)"/>
<ellipse rx="9.37409" ry="15.7701" transform="matrix(-0.959262 0.282519 0.282519 0.959262 75.6428 147.198)" fill="#5A867B" fill-opacity="0.5"/>
<ellipse rx="9.37409" ry="15.7701" transform="matrix(-0.959262 0.282519 0.282519 0.959262 75.6428 147.198)" fill="url(#paint14_radial_200_349)"/>
<defs>
<filter id="filter0_ii_200_349" x="14.2908" y="13.0454" width="165.953" height="171.346" filterUnits="userSpaceOnUse" color-interpolation-filters="sRGB">
<feFlood flood-opacity="0" result="BackgroundImageFix"/>
<feBlend mode="normal" in="SourceGraphic" in2="BackgroundImageFix" result="shape"/>
<feColorMatrix in="SourceAlpha" type="matrix" values="0 0 0 0 0 0 0 0 0 0 0 0 0 0 0 0 0 0 127 0" result="hardAlpha"/>
<feOffset dx="0.15" dy="0.15"/>
<feGaussianBlur stdDeviation="0.25"/>
<feComposite in2="hardAlpha" operator="arithmetic" k2="-1" k3="1"/>
<feColorMatrix type="matrix" values="0 0 0 0 0.807843 0 0 0 0 0.807843 0 0 0 0 0.807843 0 0 0 1 0"/>
<feBlend mode="normal" in2="shape" result="effect1_innerShadow_200_349"/>
<feColorMatrix in="SourceAlpha" type="matrix" values="0 0 0 0 0 0 0 0 0 0 0 0 0 0 0 0 0 0 127 0" result="hardAlpha"/>
<feOffset dx="-0.3" dy="0.1"/>
<feGaussianBlur stdDeviation="0.25"/>
<feComposite in2="hardAlpha" operator="arithmetic" k2="-1" k3="1"/>
<feColorMatrix type="matrix" values="0 0 0 0 0.964706 0 0 0 0 0.964706 0 0 0 0 0.964706 0 0 0 1 0"/>
<feBlend mode="normal" in2="effect1_innerShadow_200_349" result="effect2_innerShadow_200_349"/>
</filter>
<filter id="filter1_f_200_349" x="16.7119" y="45.6749" width="81.8809" height="129.958" filterUnits="userSpaceOnUse" color-interpolation-filters="sRGB">
<feFlood flood-opacity="0" result="BackgroundImageFix"/>
<feBlend mode="normal" in="SourceGraphic" in2="BackgroundImageFix" result="shape"/>
<feGaussianBlur stdDeviation="0.625" result="effect1_foregroundBlur_200_349"/>
</filter>
<filter id="filter2_f_200_349" x="95.4541" y="41.6514" width="81.8809" height="127.056" filterUnits="userSpaceOnUse" color-interpolation-filters="sRGB">
<feFlood flood-opacity="0" result="BackgroundImageFix"/>
<feBlend mode="normal" in="SourceGraphic" in2="BackgroundImageFix" result="shape"/>
<feGaussianBlur stdDeviation="0.625" result="effect1_foregroundBlur_200_349"/>
</filter>
<linearGradient id="paint0_linear_200_349" x1="104.788" y1="184.241" x2="104.788" y2="157.02" gradientUnits="userSpaceOnUse">
<stop stop-color="#BEA5D6"/>
<stop offset="1" stop-color="#BEA5D6" stop-opacity="0"/>
</linearGradient>
<radialGradient id="paint1_radial_200_349" cx="0" cy="0" r="1" gradientUnits="userSpaceOnUse" gradientTransform="translate(89.8962 185.527) rotate(-65.6375) scale(12.3776 11.966)">
<stop offset="0.415529" stop-color="#AB8CC8"/>
<stop offset="1" stop-color="#AB8CC8" stop-opacity="0"/>
</radialGradient>
<linearGradient id="paint2_linear_200_349" x1="175.417" y1="39.6308" x2="154.255" y2="70.0273" gradientUnits="userSpaceOnUse">
<stop stop-color="#FAF9FA"/>
<stop offset="1" stop-color="#FAF9FA" stop-opacity="0"/>
</linearGradient>
<linearGradient id="paint3_linear_200_349" x1="54.6909" y1="25.8596" x2="56.4596" y2="30.3796" gradientUnits="userSpaceOnUse">
<stop stop-color="#C9C9C9"/>
<stop offset="1" stop-color="#C9C9C9" stop-opacity="0"/>
</linearGradient>
<linearGradient id="paint4_linear_200_349" x1="109.043" y1="90.6437" x2="186.482" y2="153.19" gradientUnits="userSpaceOnUse">
<stop stop-color="#E7E1ED"/>
<stop offset="1" stop-color="#E4DDEC"/>
</linearGradient>
<linearGradient id="paint5_linear_200_349" x1="14.2529" y1="54.1148" x2="88.9682" y2="181.431" gradientUnits="userSpaceOnUse">
<stop stop-color="#B7B1BE"/>
<stop offset="1" stop-color="#AB9EBA"/>
</linearGradient>
<radialGradient id="paint6_radial_200_349" cx="0" cy="0" r="1" gradientUnits="userSpaceOnUse" gradientTransform="translate(83.0891 39.798) scale(28.7204 7.12692)">
<stop stop-color="#FF647D"/>
<stop offset="1" stop-color="#E14065"/>
</radialGradient>
<radialGradient id="paint7_radial_200_349" cx="0" cy="0" r="1" gradientUnits="userSpaceOnUse" gradientTransform="translate(118.055 139.301) rotate(77.2138) scale(22.394 21.0057)">
<stop offset="0.28841" stop-color="#46377C"/>
<stop offset="1" stop-color="#4E306A"/>
</radialGradient>
<radialGradient id="paint8_radial_200_349" cx="0" cy="0" r="1" gradientUnits="userSpaceOnUse" gradientTransform="translate(117.923 152.849) rotate(78.8589) scale(9.25113 7.79257)">
<stop stop-color="#65568A"/>
<stop offset="1" stop-color="#65568A" stop-opacity="0"/>
</radialGradient>
<radialGradient id="paint9_radial_200_349" cx="0" cy="0" r="1" gradientUnits="userSpaceOnUse" gradientTransform="translate(137.308 107.283) rotate(77.2138) scale(22.394 21.0057)">
<stop offset="0.28841" stop-color="#46377C"/>
<stop offset="1" stop-color="#4E306A"/>
</radialGradient>
<radialGradient id="paint10_radial_200_349" cx="0" cy="0" r="1" gradientUnits="userSpaceOnUse" gradientTransform="translate(137.176 120.831) rotate(78.8589) scale(9.25113 7.79257)">
<stop stop-color="#65568A"/>
<stop offset="1" stop-color="#65568A" stop-opacity="0"/>
</radialGradient>
<radialGradient id="paint11_radial_200_349" cx="0" cy="0" r="1" gradientUnits="userSpaceOnUse" gradientTransform="translate(156.667 74.627) rotate(77.2138) scale(22.394 21.0057)">
<stop offset="0.28841" stop-color="#46377C"/>
<stop offset="1" stop-color="#4E306A"/>
</radialGradient>
<radialGradient id="paint12_radial_200_349" cx="0" cy="0" r="1" gradientUnits="userSpaceOnUse" gradientTransform="translate(156.535 88.1749) rotate(78.8589) scale(9.25113 7.79257)">
<stop stop-color="#65568A"/>
<stop offset="1" stop-color="#65568A" stop-opacity="0"/>
</radialGradient>
<radialGradient id="paint13_radial_200_349" cx="0" cy="0" r="1" gradientUnits="userSpaceOnUse" gradientTransform="translate(7.94895 28.7205) rotate(-76.6657) scale(25.3505 15.0688)">
<stop stop-color="#3E284E"/>
<stop offset="1" stop-color="#40306F"/>
</radialGradient>
<radialGradient id="paint14_radial_200_349" cx="0" cy="0" r="1" gradientUnits="userSpaceOnUse" gradientTransform="translate(7.94895 28.7205) rotate(-95.2473) scale(25.9589 18.8296)">
<stop stop-color="#3E284E"/>
<stop offset="1" stop-color="#40306F"/>
</radialGradient>
</defs>
</svg>
