<svg width="86" height="23" viewBox="0 0 86 23" fill="none" xmlns="http://www.w3.org/2000/svg">
<path d="M10.7892 2.10252C11.6194 1.62319 12.6423 1.62319 13.4725 2.10252L19.5985 5.63934C20.4287 6.11867 20.9402 7.00451 20.9402 7.96318V15.0368C20.9402 15.9955 20.4287 16.8813 19.5985 17.3607L13.4725 20.8975C12.6423 21.3768 11.6194 21.3768 10.7892 20.8975L4.66323 17.3607C3.83301 16.8813 3.32157 15.9955 3.32157 15.0368V7.96318C3.32157 7.00451 3.83301 6.11867 4.66323 5.63934L10.7892 2.10252Z" stroke="#D03589" stroke-width="2.3"/>
<path d="M41.7892 2.10252C42.6194 1.62319 43.6423 1.62319 44.4725 2.10252L50.5985 5.63934C51.4287 6.11867 51.9402 7.00451 51.9402 7.96318V15.0368C51.9402 15.9955 51.4287 16.8813 50.5985 17.3607L44.4725 20.8975C43.6423 21.3768 42.6194 21.3768 41.7892 20.8975L35.6632 17.3607C34.833 16.8813 34.3216 15.9955 34.3216 15.0368V7.96318C34.3216 7.00451 34.833 6.11867 35.6632 5.63934L41.7892 2.10252Z" stroke="#D03589" stroke-width="2.3"/>
<path d="M72.7892 2.10252C73.6194 1.62319 74.6423 1.62319 75.4725 2.10252L81.5985 5.63934C82.4287 6.11867 82.9402 7.00451 82.9402 7.96318V15.0368C82.9402 15.9955 82.4287 16.8813 81.5985 17.3607L75.4725 20.8975C74.6423 21.3768 73.6194 21.3768 72.7892 20.8975L66.6632 17.3607C65.833 16.8813 65.3216 15.9955 65.3216 15.0368V7.96318C65.3216 7.00451 65.833 6.11867 66.6632 5.63934L72.7892 2.10252Z" stroke="#D03589" stroke-width="2.3"/>
</svg>
